<?xml version="1.0" standalone="no"?>
<svg xmlns:xlink="http://www.w3.org/1999/xlink" id="wave" style="transform:rotate(0deg); transition: 0.3s" viewBox="0 0 1440 100" version="1.1" xmlns="http://www.w3.org/2000/svg"><defs><linearGradient id="sw-gradient-0" x1="0" x2="0" y1="1" y2="0"><stop stop-color="rgba(32, 34, 37, 1)" offset="0%"/><stop stop-color="rgba(32, 34, 37, 1)" offset="100%"/></linearGradient></defs><path style="transform:translate(0, 0px); opacity:1" fill="url(#sw-gradient-0)" d="M0,20L20,31.7C40,43,80,67,120,65C160,63,200,37,240,31.7C280,27,320,43,360,48.3C400,53,440,47,480,48.3C520,50,560,60,600,53.3C640,47,680,23,720,11.7C760,0,800,0,840,5C880,10,920,20,960,31.7C1000,43,1040,57,1080,51.7C1120,47,1160,23,1200,20C1240,17,1280,33,1320,41.7C1360,50,1400,50,1440,53.3C1480,57,1520,63,1560,55C1600,47,1640,23,1680,25C1720,27,1760,53,1800,61.7C1840,70,1880,60,1920,55C1960,50,2000,50,2040,55C2080,60,2120,70,2160,66.7C2200,63,2240,47,2280,38.3C2320,30,2360,30,2400,33.3C2440,37,2480,43,2520,38.3C2560,33,2600,17,2640,18.3C2680,20,2720,40,2760,50C2800,60,2840,60,2860,60L2880,60L2880,100L2860,100C2840,100,2800,100,2760,100C2720,100,2680,100,2640,100C2600,100,2560,100,2520,100C2480,100,2440,100,2400,100C2360,100,2320,100,2280,100C2240,100,2200,100,2160,100C2120,100,2080,100,2040,100C2000,100,1960,100,1920,100C1880,100,1840,100,1800,100C1760,100,1720,100,1680,100C1640,100,1600,100,1560,100C1520,100,1480,100,1440,100C1400,100,1360,100,1320,100C1280,100,1240,100,1200,100C1160,100,1120,100,1080,100C1040,100,1000,100,960,100C920,100,880,100,840,100C800,100,760,100,720,100C680,100,640,100,600,100C560,100,520,100,480,100C440,100,400,100,360,100C320,100,280,100,240,100C200,100,160,100,120,100C80,100,40,100,20,100L0,100Z"/></svg>